<svg height="512pt" viewBox="0 -11 512.00005 512" width="512pt" xmlns="http://www.w3.org/2000/svg"><path d="m504.28125 83.425781h-48.097656v-69.566406c0-8.753906 7-13.859375 14.011718-13.859375 5.027344 0 10.054688 2.609375 12.550782 8.367188l28.117187 65.039062c2.046875 4.738281-1.421875 10.019531-6.582031 10.019531zm0 0" fill="#c5c4cc"/><path d="m168.667969 0c-7.011719 0-14.011719 5.105469-14.011719 13.859375v415.125c0 3.304687 3.695312 5.261719 6.429688 3.40625l28.953124-19.65625c1.398438-.949219 3.230469-.949219 4.625 0l33.070313 22.453125c1.398437.945312 3.230469.945312 4.625 0l33.066406-22.453125c1.398438-.949219 3.230469-.949219 4.625 0l33.070313 22.453125c1.394531.945312 3.226562.945312 4.625 0l33.066406-22.453125c1.394531-.949219 3.226562-.949219 4.625 0l33.0625 22.453125c1.398438.945312 3.230469.945312 4.625 0l33.0625-22.453125c1.394531-.945313 3.226562-.945313 4.625 0l28.941406 19.65625c2.734375 1.855469 6.429688-.101563 6.429688-3.40625v-415.125c0-8.753906 7-13.859375 14.011718-13.859375zm0 0" fill="#e9e9ea"/><path d="m225.347656 130.214844c-2.257812 0-4.398437-1.019532-5.824218-2.777344l-12.457032-15.351562c-2.609375-3.21875-2.117187-7.941407 1.097656-10.550782 3.21875-2.609375 7.941407-2.117187 10.550782 1.097656l6.523437 8.042969 24.191407-30.964843c2.550781-3.265626 7.265624-3.84375 10.53125-1.292969 3.261718 2.550781 3.839843 7.265625 1.289062 10.527343l-29.988281 38.386719c-1.410157 1.800781-3.558594 2.859375-5.84375 2.882813-.023438 0-.046875 0-.070313 0zm0 0" fill="#aed559"/><path d="m411.960938 114.554688h-113.167969c-4.144531 0-7.5-3.355469-7.5-7.5 0-4.140626 3.355469-7.5 7.5-7.5h113.167969c4.140624 0 7.5 3.359374 7.5 7.5 0 4.144531-3.359376 7.5-7.5 7.5zm0 0" fill="#575b7a"/><path d="m225.347656 211.675781c-2.257812 0-4.398437-1.019531-5.824218-2.777343l-12.457032-15.351563c-2.609375-3.21875-2.117187-7.941406 1.097656-10.550781 3.21875-2.609375 7.941407-2.117188 10.550782 1.097656l6.523437 8.039062 24.191407-30.960937c2.550781-3.265625 7.265624-3.84375 10.53125-1.292969 3.261718 2.550782 3.839843 7.261719 1.289062 10.527344l-29.988281 38.386719c-1.410157 1.800781-3.558594 2.859375-5.84375 2.882812-.023438 0-.046875 0-.070313 0zm0 0" fill="#aed559"/><path d="m411.960938 196.015625h-113.167969c-4.144531 0-7.5-3.359375-7.5-7.5s3.355469-7.5 7.5-7.5h113.167969c4.140624 0 7.5 3.359375 7.5 7.5s-3.359376 7.5-7.5 7.5zm0 0" fill="#575b7a"/><path d="m225.347656 293.132812c-2.257812 0-4.398437-1.019531-5.824218-2.773437l-12.457032-15.351563c-2.609375-3.21875-2.117187-7.941406 1.097656-10.550781 3.21875-2.609375 7.941407-2.117187 10.550782 1.097657l6.523437 8.039062 24.191407-30.960938c2.550781-3.265624 7.265624-3.84375 10.53125-1.292968 3.261718 2.550781 3.839843 7.261718 1.289062 10.527344l-29.988281 38.386718c-1.410157 1.800782-3.558594 2.859375-5.84375 2.882813-.023438-.003907-.046875-.003907-.070313-.003907zm0 0" fill="#aed559"/><path d="m411.960938 277.476562h-113.167969c-4.144531 0-7.5-3.359374-7.5-7.5 0-4.140624 3.355469-7.5 7.5-7.5h113.167969c4.140624 0 7.5 3.359376 7.5 7.5 0 4.140626-3.359376 7.5-7.5 7.5zm0 0" fill="#575b7a"/><path d="m0 342.066406v16.835938c0 6.242187 5.0625 11.304687 11.304688 11.304687h232.730468c6.242188 0 11.304688-5.0625 11.304688-11.304687v-16.835938c0-6.242187-5.0625-11.304687-11.304688-11.304687h-232.730468c-6.242188 0-11.304688 5.0625-11.304688 11.304687zm0 0" fill="#8cbafa"/><path d="m244.035156 330.761719h-23.351562c6.242187 0 11.304687 5.0625 11.304687 11.304687v16.835938c0 6.242187-5.0625 11.304687-11.304687 11.304687h23.351562c6.242188 0 11.304688-5.0625 11.304688-11.304687v-16.835938c0-6.242187-5.0625-11.304687-11.304688-11.304687zm0 0" fill="#5692d8"/><path d="m41.355469 478.777344-23.375-108.570313h219.378906l-23.371094 108.566407c-1.519531 7.0625-7.761719 12.101562-14.984375 12.101562h-142.667968c-7.21875 0-13.460938-5.039062-14.980469-12.097656zm0 0" fill="#aed559"/><path d="m213.675781 370.207031-23.375 108.566407c-1.523437 7.0625-7.765625 12.101562-14.984375 12.101562h23.6875c7.21875 0 13.460938-5.039062 14.980469-12.101562l23.375-108.566407zm0 0" fill="#7fab38"/><path d="m57.265625 352.523438c-1.417969 0-2.847656-.386719-4.128906-1.203126-3.601563-2.28125-4.664063-7.050781-2.382813-10.652343l53.941406-84.972657c2.28125-3.597656 7.050782-4.664062 10.652344-2.378906 3.597656 2.28125 4.664063 7.050782 2.378906 10.652344l-53.9375 84.972656c-1.472656 2.316406-3.972656 3.582032-6.523437 3.582032zm0 0" fill="#575b7a"/><path d="m198.074219 352.523438c-2.550781 0-5.050781-1.265626-6.519531-3.582032l-53.941407-84.972656c-2.285156-3.601562-1.21875-8.367188 2.378907-10.652344 3.601562-2.285156 8.371093-1.21875 10.65625 2.378906l53.9375 84.972657c2.285156 3.601562 1.21875 8.367187-2.378907 10.652343-1.285156.816407-2.714843 1.203126-4.132812 1.203126zm0 0" fill="#575b7a"/><g fill="#7fab38"><path d="m80.296875 422.910156c-4.144531 0-7.5-3.355468-7.5-7.5v-15.4375c0-4.140625 3.355469-7.5 7.5-7.5 4.140625 0 7.5 3.359375 7.5 7.5v15.4375c0 4.144532-3.359375 7.5-7.5 7.5zm0 0"/><path d="m127.671875 422.910156c-4.144531 0-7.5-3.355468-7.5-7.5v-15.4375c0-4.140625 3.355469-7.5 7.5-7.5 4.140625 0 7.5 3.359375 7.5 7.5v15.4375c0 4.144532-3.359375 7.5-7.5 7.5zm0 0"/><path d="m175.042969 422.910156c-4.140625 0-7.5-3.355468-7.5-7.5v-15.4375c0-4.140625 3.359375-7.5 7.5-7.5 4.144531 0 7.5 3.359375 7.5 7.5v15.4375c0 4.144532-3.355469 7.5-7.5 7.5zm0 0"/><path d="m103.984375 459.273438c-4.144531 0-7.5-3.359376-7.5-7.5v-15.4375c0-4.144532 3.355469-7.5 7.5-7.5 4.140625 0 7.5 3.355468 7.5 7.5v15.4375c0 4.140624-3.359375 7.5-7.5 7.5zm0 0"/><path d="m151.355469 459.273438c-4.140625 0-7.5-3.359376-7.5-7.5v-15.4375c0-4.144532 3.359375-7.5 7.5-7.5 4.144531 0 7.5 3.355468 7.5 7.5v15.4375c0 4.140624-3.355469 7.5-7.5 7.5zm0 0"/></g><path d="m426.714844 343.625-41.113282 25.5c-5.75 3.566406-13.15625-.710938-12.945312-7.472656l1.527344-48.355469 83.941406-145.394531c2.765625-4.789063 8.886719-6.429688 13.675781-3.664063l35.191407 20.320313c4.789062 2.761718 6.429687 8.886718 3.664062 13.671875zm0 0" fill="#ffcd34"/><path d="m506.992188 184.558594-16.652344-9.613282c2.972656 1.714844 3.136718 6.984376.375 11.773438l-83.945313 145.390625-33.597656 29.839844c-.164063.144531-.324219.261719-.488281.390625.292968 6.355468 7.367187 10.226562 12.917968 6.785156l41.113282-25.5 83.941406-145.394531c2.765625-4.785157 1.125-10.910157-3.664062-13.671875zm0 0" fill="#e69012"/><path d="m373.726562 327.746094-1.070312 33.90625c-.210938 6.761718 7.191406 11.039062 12.945312 7.472656l28.824219-17.878906zm0 0" fill="#575b7a"/><path d="m396.730469 341.027344-23.558594 20.921875c-.164063.144531-.324219.261719-.488281.390625v.003906c.292968 6.304688 7.316406 10.253906 12.917968 6.78125l28.828126-17.878906zm0 0" fill="#252d4c"/><path d="m506.992188 184.558594-35.191407-20.320313c-4.789062-2.761719-10.910156-1.125-13.671875 3.664063l-12.074218 20.910156 52.53125 30.328125 12.070312-20.910156c2.765625-4.785157 1.125-10.910157-3.664062-13.671875zm0 0" fill="#fa7ec1"/><path d="m478.644531 207.625 19.941407 11.515625 12.070312-20.910156c2.765625-4.785157 1.125-10.910157-3.664062-13.671875l-16.652344-9.613282c2.972656 1.714844 3.136718 6.984376.375 11.773438zm0 0" fill="#cf579c"/></svg>